<?xml version="1.0" encoding="UTF-8" standalone="no"?>
<!-- Created with Inkscape (http://www.inkscape.org/) -->

<svg
   version="1.1"
   id="svg1"
   width="1280"
   height="1280"
   viewBox="0 0 1280 1280"
   sodipodi:docname="osoSVGAnteojos.svg"
   inkscape:version="1.3.2 (091e20e, 2023-11-25, custom)"
   xmlns:inkscape="http://www.inkscape.org/namespaces/inkscape"
   xmlns:sodipodi="http://sodipodi.sourceforge.net/DTD/sodipodi-0.dtd"
   xmlns="http://www.w3.org/2000/svg"
   xmlns:svg="http://www.w3.org/2000/svg">
  <defs
     id="defs1" />
  <sodipodi:namedview
     id="namedview1"
     pagecolor="#ffffff"
     bordercolor="#000000"
     borderopacity="0.25"
     inkscape:showpageshadow="2"
     inkscape:pageopacity="0.0"
     inkscape:pagecheckerboard="0"
     inkscape:deskcolor="#d1d1d1"
     inkscape:zoom="0.28118543"
     inkscape:cx="396.53548"
     inkscape:cy="631.25603"
     inkscape:window-width="1366"
     inkscape:window-height="705"
     inkscape:window-x="-8"
     inkscape:window-y="-8"
     inkscape:window-maximized="1"
     inkscape:current-layer="g1" />
  <g
     inkscape:groupmode="layer"
     inkscape:label="Image"
     id="g1">
    <path
       style="fill:#222c32;stroke:none"
       d="m 383.75576,222.25163 c 23.7022,-2.79822 49.9432,4.79956 70,17.17511 8.2625,5.09821 18.4698,18.8404 28,20.29706 9.9313,1.51801 25.812,-5.81342 36,-7.5108 21.8987,-3.64844 44.926,-4.17939 67,-2.07715 15.2212,1.44958 30.7931,4.52814 45,10.2832 6.0777,2.46204 15.5115,10.96045 22,10.42975 6.8483,-0.56012 14.6145,-8.26727 21,-11.01001 14.672,-6.30206 31.0334,-10.13415 47,-10.83331 25.032,-1.09607 49.3691,1.09283 74,5.20752 9.7391,1.62695 21.9814,8.41351 31.7145,7.65356 4.8296,-0.37707 9.8186,-7.16687 13.2855,-10.18207 8.9481,-7.78247 18.304,-14.29821 29,-19.4599 42.7341,-20.62262 97.1876,-10.84546 130.9105,21.91126 32.13334,31.21258 40.56864,81.17462 23.23924,121.83026 -3.8834,9.11053 -9.001,17.15826 -15.037,25 -2.9833,3.87567 -8.14244,8.1261 -9.35424,13 -3.3753,13.57477 9.19354,23.25146 11.02784,35 1.0495,6.72223 1.2198,16.46338 -0.7292,23 -1.2619,4.23242 -4.893,7.36816 -4.5594,12 1.0181,14.13721 9.5793,30.88391 19.6759,40.57178 5.129,4.92138 14.992,8.80554 17.8171,15.46832 3.9553,9.32855 -6.1386,16.60407 -4.2307,24.9599 8.6332,37.80957 21.926,73.25262 20.2007,113 -2.4818,57.17664 -16.1847,119.06372 -66.96074,153.25073 -12.7613,8.59217 -27.3995,14.74011 -42,19.40515 -6.2201,1.98737 -16.677,2.40467 -21.5748,6.66199 -16.6722,14.49194 -29.8889,33.55609 -46.4252,48.51233 -49.0275,44.34291 -108.7031,76.76091 -175,85.01391 -78.7521,9.80358 -161.6165,-1.0808 -226,-51.2685 -18.5794,-14.4828 -35.8659,-31.35149 -51.9105,-48.57561 -9.2448,-9.92444 -18.0787,-22.56311 -29.0895,-30.56635 -5.0107,-3.64202 -13.0549,-3.54492 -19,-4.85803 -11.6074,-2.56378 -23.0228,-6.01898 -34,-10.58722 -39.6971,-16.52008 -67.0634,-51.19946 -78.5718,-91.9884 -17.646,-62.54248 -5.5964,-121.83289 9.6837,-183 2.5759,-10.31146 -8.7285,-17.72211 -4.3696,-28.99615 2.981,-7.71015 13.8743,-12.02631 19.5085,-17.74921 7.2813,-7.396 10.9128,-19.37598 13.3742,-29.25464 2.4798,-9.95251 -0.7932,-11.27533 -3.1914,-20.00385 -1.9275,-7.01586 -1.3518,-18.81951 -0.2199,-25.99615 0.8168,-5.17816 4.8957,-8.45209 7.0641,-13 2.8334,-5.94287 4.7775,-16.43005 3.8642,-23 -1.0183,-7.32458 -10.4498,-14.7453 -14.328,-21 -7.5971,-12.25262 -12.5259,-25.88892 -15.3649,-40 -13.116,-65.19031 39.6309,-121.40436 101.5509,-128.71448 m -56,264.71448 14.0046,-11.94525 51.9954,-20.05475 c 0.7649,2.95636 2.7017,7.70343 0.9329,10.57019 -2.307,3.73871 -11.0172,4.72833 -14.9329,6.12195 -13.5218,4.8125 -26.9704,9.98797 -40,16 -6.0219,2.77862 -17.7633,6.34509 -17,14.30786 l 13,-2 -21.0394,29.98535 -14.9606,13.01465 c 5.7164,1.35846 12.3268,4.14478 12.6782,11 0.3517,6.85828 -7.1685,15.55212 -9.6142,22 -5.677,14.96692 -9.6583,31.23047 -12.3109,47 -10.6637,63.39496 -11.9163,152.89355 51.2469,190.54706 12.8716,7.67315 27.403,12.80914 42,16.02856 7.9845,1.76105 19.0925,1.32257 26,5.98841 22.2852,15.05304 38.4565,41.05243 58.0008,59.34649 44.0882,41.26799 98.2367,67.83889 158.9992,71.99999 75.4174,5.1647 152.0585,-15.1722 212,-61.92443 19.1675,-14.94989 37.5318,-31.9414 53.8303,-49.98608 6.1486,-6.80743 11.0988,-15.34058 17.5485,-21.72144 6.4773,-6.4082 23.8528,-5.91564 32.6212,-8.97375 20.4354,-7.12708 37.4626,-17.9165 51.7106,-34.30481 41.35644,-47.56866 39.54874,-129.41205 24.81104,-187 -3.7773,-14.76007 -10.0195,-28.53253 -14.4244,-43 -2.1091,-6.92725 6.9524,-13.52045 4.7276,-18.62115 -1.8984,-4.3523 -10.31644,-8.17023 -13.82104,-11.46833 -8.2585,-7.77215 -15.4033,-18.07934 -21.0038,-27.91052 l 12,2 c -1.6768,-5.95752 -7.046,-9.43048 -12,-12.7832 -12.6906,-8.58863 -29.5916,-13.36121 -44,-18.35572 -11.4611,-3.97284 -23.1565,-3.07013 -19,-17.86108 l 54.9807,20.78937 14.0193,12.21063 c 0,-17.58881 2.9092,-38.77637 -0.2284,-56 -1.761,-9.66669 -12.4805,-15.5141 -10.1134,-27 2.3755,-11.52716 17.402,-21.46973 23.0185,-32 16.67674,-31.26721 11.06764,-73.66077 -13.7161,-98.98535 -27.3864,-27.98413 -74.5429,-34.43475 -107.9606,-13.31867 -10.683,6.75043 -20.3297,14.95636 -30,23.05787 -3.1943,2.67602 -7.4317,8.33654 -12,7.97375 -12.4492,-0.98859 -26.6102,-8.90283 -39,-11.84332 -23.1799,-5.50128 -47.3505,-6.9668 -71,-4.71454 -16.0808,1.53143 -31.6144,5.66742 -46,13.08874 -5.7961,2.99012 -15.7359,13.01545 -22,13.00544 -4.5853,-0.007 -9.4171,-5.11939 -13,-7.51545 -6.7701,-4.52734 -14.3723,-7.89856 -22,-10.69525 -21.558,-7.90423 -44.3348,-8.31891 -67,-8.04937 -18.084,0.21502 -36.4221,4.51654 -54,8.42053 -6.7645,1.50238 -15.0878,5.78668 -22,5.544 -4.8572,-0.17053 -8.8573,-5.83197 -12,-8.96838 -7.6279,-7.61273 -15.8197,-14.27014 -25,-19.93518 -31.0086,-19.13495 -74.5501,-12.70856 -101,11.10571 -26.4321,23.79828 -35.1389,65.72235 -19.1906,97.82947 5.845,11.76721 22.2579,23.60291 24.7817,36 2.5505,12.52869 -11.4922,15.52521 -14.1575,25.01465 -4.6401,16.52099 0.5664,39.78436 0.5664,56.98535 m 103,-177 c -27.2902,-1.17157 -53.5975,-2.42444 -75,18 12.1945,-3.86554 26.2555,-0.76013 34,10 -10.8607,0 -20.2933,1.56421 -27,11 3.7633,-1.57764 15.9873,-2.84729 17.0933,3.27777 0.8162,4.51965 -6.8944,12.52808 -8.78,16.72223 -3.9046,8.68475 -4.3133,18.63879 -4.3133,28 -10.2345,-2.87262 -17.3651,-15.99994 -21.7408,-25 -11.649,-23.96069 -10.5488,-54.84479 9.7802,-73.82642 20.1642,-18.82775 63.6545,-15.55615 75.9606,11.82642 m 511,87 c -3.0158,-9.53656 -2.769,-19.8714 -7.3773,-29 -2.2086,-4.37506 -10.4163,-10.12225 -10.4159,-14.89508 6e-4,-8.60925 17.4312,-5.6947 21.7932,-4.10492 -6.5765,-9.14246 -16.1596,-11.97009 -27,-12 6.8029,-13.91956 23.0732,-8.50238 35,-9 -19.7944,-19.37299 -46.1827,-21.90436 -72,-16 6.8707,-25.24744 47.5278,-31.75458 67,-20.07025 34.4825,20.69128 29.5695,88.01623 -7,105.07025 m -453,-39.71448 c 34.5573,-4.07745 76.4909,-0.88928 110,8.20368 10.6811,2.89843 15.8428,12.36139 25.0394,15.90741 8.8913,3.42834 24.4209,1.82245 33.9606,1.58874 7.3149,-0.1792 19.2366,0.88562 25.9961,-1.72766 5.068,-1.95935 7.8661,-7.58728 12.0077,-10.86725 5.5736,-4.41406 13.2021,-6.13061 19.9962,-7.73608 40.6244,-9.59967 86.794,-6.74817 128,-2.8241 16.196,1.54236 36.0673,0.25696 51,7.68823 23.2656,11.57819 14.7374,43.2522 12.2855,63.48151 -4.9184,40.57867 -6.2881,92.61829 -49.2855,113.11035 -7.6485,3.6452 -15.6485,6.05072 -24,7.45447 -48.5161,8.15485 -98.2891,0.40607 -129.5216,-41.56482 -15.4752,-20.7959 -19.4985,-43.85828 -31.152,-66 -3.9695,-7.54218 -10.9072,-11.93256 -19.3264,-11.99536 -6.713,-0.05 -14.1207,1.479 -18.49,7.08948 -4.6604,5.98431 -6.3553,15.90625 -9.3596,22.90588 -6.6309,15.44934 -13.853,30.50891 -24.0501,44 -33.9367,44.89899 -94.3275,60.24438 -147.1003,42.48383 -50.1236,-16.86902 -51.9063,-73.69007 -57.2847,-117.48383 -2.2415,-18.25073 -7.9172,-41.84521 5.6134,-56.90662 7.0566,-7.85498 17.8014,-9.54199 27.6713,-11.17364 19.2613,-3.18427 38.7039,-3.35742 58,-5.63422 m 10,24.13886 c -20.4692,2.68762 -46.941,1.24762 -62.9067,16.7492 -9.7121,9.42981 -12.0883,23.89875 -12.0933,36.82642 -0.011,27.78693 2.7175,66.14813 27,84.2392 20.4599,15.2431 56.7256,14.63366 81,11.47143 39.759,-5.17938 62.2913,-38.29938 73.3411,-73.71063 5.0315,-16.12457 8.5856,-37.17957 -1.9792,-52 -16.4253,-23.04144 -55.8591,-24 -81.3619,-24 -7.6,0 -15.4548,-0.56635 -23,0.42438 m 264,0 c -17.9979,2.36316 -37.5712,1.92071 -51.8303,15.16668 -30.9508,28.75171 -7.1926,92.33075 19.8341,116.11957 24.7701,21.80255 58.9773,20.72565 89.9962,17.00385 43.0239,-5.16223 56.304,-39.39087 61.2816,-77.71448 2.1115,-16.25714 2.4412,-36.65802 -8.6103,-49.99921 -8.9172,-10.76452 -22.3605,-14.8164 -35.6713,-17.08026 -23.8857,-4.06231 -50.8351,-6.66907 -75,-3.49615 m -373,27.57562 c 0.2024,9.80707 6.4214,28.89075 2.3958,37.72223 -1.8485,4.05542 -10.5436,5.91913 -14.3958,7.47839 -13.7679,5.57294 -27.6682,12.87958 -42,16.79938 l -1,-28 1.0278,-10.36267 13.9722,-7.8009 40,-15.83643 m 528,0 42,16.75616 13.1027,8.45679 -0.1027,36.78705 -44,-15.94983 -14.9329,-6.56018 0.099,-10.48999 3.8341,-29 m -261,69.28552 c 5.4383,-0.64166 13.9515,-1.401 18.787,1.70288 4.5592,2.92652 6.1089,10.41254 8.4723,15.0116 4.4137,8.58899 10.3846,16.78998 16.7909,23.99615 14.2086,15.98267 35.9501,26.55884 48.0455,44.00385 9.8029,14.13855 11.1555,30.49506 13.189,47 2.4268,19.69696 5.4331,39.32007 7.9969,59 1.9511,14.97675 3.7528,29.94598 4.8079,45 0.3847,5.48853 1.9715,11.53595 0.4768,17 -2.2126,8.08881 -14.3523,16.98199 -22.5663,17.80017 -9.4094,0.93713 -13.3806,-7.56555 -18.4638,-13.80017 -5.7405,-7.04089 -12.1354,-12.63873 -19.5362,-17.85571 -11.5514,-8.14283 -25.6005,-13.66089 -39,-17.94983 -6.3571,-2.03479 -14.0898,-3.59766 -15.6559,-11.19525 -1.0438,-5.06379 -3.0242,-22.39917 -0.3125,-26.58026 2.2709,-3.50135 9.2762,-4.59705 12.9684,-5.99537 8.2758,-3.13427 16.6235,-7.14795 22.9606,-13.46368 13.9024,-13.85541 28.5269,-51.14313 14.6458,-68.95911 -9.2508,-11.87323 -26.5059,-14.46106 -40.6064,-15.83105 -19.7498,-1.91882 -40.9016,-1.66272 -60,4.50079 -9.3016,3.00183 -18.4232,7.35602 -21.8912,17.32947 -3.6733,10.56329 0.8647,24.84747 4.2462,35 2.4864,7.46509 5.8692,14.65973 10.5694,20.99921 7.237,9.7611 17.9427,16.38739 29.0756,20.79705 4.6921,1.85853 13.8694,2.32605 14.8519,8.24769 1.0769,6.49139 1.3163,23.75457 -3.1698,28.7315 -7.8454,8.70392 -27.1991,10.26843 -37.6821,15.47223 -19.7965,9.82703 -31.4061,22.91193 -47.0903,37.61884 -5.2005,4.87652 -12.565,4.87591 -18.9089,2.13885 -5.234,-2.25818 -15.3159,-12.33246 -16.6027,-18.02392 -1.4127,-6.2486 0.8413,-14.6532 1.5517,-20.98145 1.7974,-16.01056 3.8006,-32.00995 5.7655,-48 3.7932,-30.86987 2.6266,-76.4353 22.814,-101.98535 12.1639,-15.39514 33.577,-23.76624 47.4205,-38.10803 7.8574,-8.14014 13.8643,-17.25751 19.6505,-26.90662 2.5819,-4.3056 5.0186,-11.14264 9.5849,-13.68213 6.8327,-3.79993 19.101,-1.12219 26.8148,-2.03235 m 275,15.71448 17.4112,6.13965 5.6004,13.86035 13.9884,39 h -6 c 6.294,16.6828 15.0981,51.17236 7,68 l -6,-2 c -1.2427,28.94843 -11.8367,59.86243 -25.8619,85 -5.0088,8.97742 -12.6725,22.06244 -23.1381,25 l -9,-13 c -5.7707,17.05756 -18.1699,45.47919 -35,54 -0.2716,-3.41211 -1.6666,-17.25568 -7.2909,-16.21759 -2.9506,0.54462 -5.8846,6.15198 -7.7994,8.21759 -6.8321,7.37024 -14.0787,14.69696 -21.9097,20.99927 -19.4065,15.61804 -44.3054,24.81158 -69,28.00073 v -1 c 24.2415,-14.14899 47.8434,-24.49036 67.9606,-45.01465 9.7144,-9.91101 14.4571,-25.21484 24.0055,-34.38122 4.5189,-4.33814 10.8178,2.85986 15.5694,-1.01538 15.7581,-12.85218 21.9234,-41.79456 25.4645,-60.58875 9.4153,5.44781 13.2066,19.15997 16,29 h 1 c 6.0572,-14.03876 15.1963,-26.35504 20.3048,-41 7.8067,-22.37994 7.6952,-44.6488 7.6952,-68 l 9,1 c -1.0382,-24.18414 -10.4647,-47.97833 -17,-71 l 1,-1 8,4 -12,-28 m -553,2 -12,26 h 4 l -8.1659,27 -9.8341,41 10,-1 c -0.052,18.99127 -3.7755,35.98529 0.4244,55 3.7943,17.17853 14.5825,33.20953 17.5756,50 l 19,-25 c 0.017,26.3833 17.4276,45.38226 28,68 l 17,-9 c 16.5656,39.78906 50.3995,63.20367 88,81 v 1 c -36.6968,-1.57587 -74.713,-23.02905 -94,-54 h -1 c -2.326,3.315 -7.7842,12.5116 -12.0895,12.96295 -4.8852,0.51215 -8.9977,-7.63556 -11.2408,-10.96295 -8.6435,-12.8219 -17.55,-26.9375 -21.6697,-42 l -11,13 c -10.5922,-4.93945 -18.3051,-17.77692 -23.2161,-28 -12.7752,-26.59369 -13.5654,-55.09998 -20.7839,-83 l -7,3 c 0,-23.45795 5.517,-45.8808 13,-68 h -6 c 2.8767,-19.47839 18.8096,-56.03284 41,-57 m 327,93 h -1 c -12.0591,-25.29657 -51.8514,-24.45508 -76,-20.72534 -10.0068,1.54553 -25.472,5.54645 -28.8858,16.72534 -3.1113,10.18817 13.962,15.76868 16.8858,24 -15.4965,-0.80573 -27.2352,-25.28546 -13.8951,-36.07251 18.7474,-15.15942 55.9536,-12.18921 77.8951,-7.64197 13.4569,2.78888 24.9566,8.6048 25,23.71448 m -0.9996,4 c -1.2817,8.55084 -5.9387,13.87787 -14,16.93445 -3.1131,1.18042 -12.8572,3.2204 -11.1682,-3.6358 0.5926,-2.40583 4.247,-3.06897 6.169,-3.92756 6.8255,-3.04907 13.2085,-4.41253 18.9992,-9.37109 m -22.9962,123.64355 c 7.7394,-2.5036 25.8182,8.71106 31.9962,13.14502 2.5687,1.84357 6.6338,4.75861 6.9629,8.21143 0.5795,6.07947 -10.3908,13.22253 -14.9629,15.6759 -14.4021,7.72803 -34.2524,4.24359 -50,4.03394 -15.6613,-0.20844 -32.543,3.0144 -48,1.00079 -7.1198,-0.92755 -28.2128,-8.25049 -24.7477,-18.7099 2.9038,-8.76501 18.0907,-14.57068 25.7477,-18.02539 2.9669,-1.33862 6.5702,-3.91461 9.9853,-3.0448 4.3608,1.11066 7.1555,6.30322 11.0185,8.53705 7.3968,4.27716 16.7207,4.02295 24.9962,3.44293 6.3657,-0.44616 12.9256,-2.3258 17.9105,-6.43988 3.0075,-2.48199 5.2215,-6.57458 9.0933,-7.82709 m -61.0038,11.35645 c -0.3555,8.30029 7.9166,13.29602 15,15.64124 13.9789,4.62805 43.7914,5.19006 46,-14.64124 -6.0205,1.16089 -11.0021,5.07965 -17,6.62195 -15.6289,4.0188 -30.501,0.50439 -44,-7.62195 m -45,20 c 6.5748,9.66528 14.7525,20.05786 26,24.52081 15.6486,6.20929 36.6323,-0.19714 53,0.51856 13.8568,0.60589 31.7366,4.24054 45,-0.96607 8.0558,-3.16229 14.0762,-8.91217 19.9606,-15.0733 2.2425,-2.34796 4.9932,-7.3772 8.2994,-8.24847 4.9779,-1.31183 12.9755,13.6889 17.74,16.06945 9.8003,4.89667 18.8368,-5.92297 26,-10.82098 -3.4908,14.56116 -17.3041,25.54675 -26.8843,36.28552 -10.0384,11.25232 -20.821,28.47644 -34.1157,35.80939 -8.67,4.7821 -18.5101,4.17175 -28,5.07489 -17.529,1.66809 -35.3799,0.8302 -53,0.8302 -13.2474,0 -27.6618,0.78394 -40,-4.90125 -12.7026,-5.85314 -19.4769,-20.45709 -29.0039,-30.09875 -12.4583,-12.60828 -31.1166,-28.4718 -33.9961,-47 7.6399,7.06335 18.8795,21.75098 31,14.25769 7.0427,-4.35394 10.3973,-12.70996 18,-16.25769 m 57,43 c 12.3369,0.97363 28.2645,4.95215 40,0 -6.457,-6.98816 -34.5435,-8.92017 -40,0 m 80,7 c -20.8129,25.487 -62.5883,31.81458 -93,21.30402 -12.3409,-4.26508 -21.5023,-11.99616 -32,-19.30402 2.2062,11.08685 14.244,18.40845 24,22.39502 22.3213,9.12122 50.1997,9.34473 73,1.52624 8.9623,-3.07324 31.3683,-13.63775 28,-25.92126 m 103,25 c -7.9778,27.64075 -31.1814,54.18005 -51,74 -6.5957,6.59619 -12.3608,14.61816 -20,20 0.9286,-11.74933 2.1417,-29.66357 7.9661,-40 7.8667,-13.96094 26.7097,-21.33838 39.0339,-30.88812 8.8008,-6.81952 15.1417,-16.59198 24,-23.11188 m -313,22 c 16.8408,14.51038 33.3231,29.07471 55,35.97144 19.2204,6.11511 47.752,0.68396 64,13.419 8.8466,6.9339 11.77,15.79309 16,25.60956 8.1292,-14.38885 30.006,-12.34302 44,-15.6543 12.1979,-2.88635 21.3271,-9.27179 32,-15.3457 -3.8661,8.29022 -12.3181,15.01392 -19,21.07483 -21.0179,19.06498 -43.9537,28.24988 -71,35.92518 -2.8588,-7.4664 -4.5449,-15.531 -9.5293,-22 -14.6382,-18.99781 -39.9422,-11.99629 -59.4707,-20.90046 -13.9023,-6.33887 -24.7213,-19.27478 -33.8804,-31.09955 -5.2635,-6.79547 -18.1364,-18.01788 -18.1196,-27"
       id="path1"
       sodipodi:nodetypes="cssssssssssssssssssssssssssssssssssssssssssscccccsssccccsssssssssssssssssccsscccsssssssssssssssssssssscccccsscssccssccccsccsssssssssssssssssssssccsssssssccssssssccssccccccccccccccsssssssssssssssssssssssssssssssssssccccccccscccsssccssscccsccccccccccccsccccccccssccscccccccsscssccsssccsssssssssssccscsccsssssscsssssscscccccscssccscssccsscscscsssc" />
  </g>
</svg>
